# xmcd CD database file
#
# Track frame offsets:
#	150
#	19659
#	43439
#
# Disc length: 794 seconds
#
# Revision: 2
# Processed by: cddbd v1.4b41PL1 Copyright (c) Steve Scherf et al.
# Submitted via: Feurio! 1.60 - http://www.feurio.com
#
DISCID=1e031803,21031803
DTITLE=Roxette - Pearls of Passion (1997 Reissue)
DYEAR=1900
DGENRE=
TTITLE0=Surrender
TTITLE1=So Far Away
TTITLE2=I Call Your Name
EXTD=
EXTT0=
EXTT1=
EXTT2=
PLAYORDER=
